<mxfile host="app.diagrams.net" modified="2022-04-01T15:19:31.603Z" agent="5.0 (Windows NT 10.0; Win64; x64) AppleWebKit/537.36 (KHTML, like Gecko) Chrome/100.0.4896.60 Safari/537.36" etag="2L2pdjik4g4c0eTg8rji" version="17.4.0" type="github">
  <diagram id="AYQV9O10JoMfKQ76o80u" name="Page-1">
    <mxGraphModel dx="1296" dy="722" grid="1" gridSize="10" guides="1" tooltips="1" connect="1" arrows="1" fold="1" page="1" pageScale="1" pageWidth="827" pageHeight="1169" math="0" shadow="0">
      <root>
        <mxCell id="0" />
        <mxCell id="1" parent="0" />
        <mxCell id="PT8ND_q76XKcG_l77ZsT-3" value="" style="edgeStyle=orthogonalEdgeStyle;rounded=0;orthogonalLoop=1;jettySize=auto;html=1;" parent="1" target="PT8ND_q76XKcG_l77ZsT-2" edge="1">
          <mxGeometry relative="1" as="geometry">
            <mxPoint x="96" y="110" as="sourcePoint" />
          </mxGeometry>
        </mxCell>
        <mxCell id="PT8ND_q76XKcG_l77ZsT-1" value="Inicio" style="ellipse;whiteSpace=wrap;html=1;fillColor=#f5f5f5;fontColor=#333333;strokeColor=#666666;" parent="1" vertex="1">
          <mxGeometry x="36" y="30" width="120" height="80" as="geometry" />
        </mxCell>
        <mxCell id="PT8ND_q76XKcG_l77ZsT-5" value="" style="edgeStyle=orthogonalEdgeStyle;rounded=0;orthogonalLoop=1;jettySize=auto;html=1;" parent="1" target="PT8ND_q76XKcG_l77ZsT-4" edge="1">
          <mxGeometry relative="1" as="geometry">
            <mxPoint x="96" y="360" as="sourcePoint" />
          </mxGeometry>
        </mxCell>
        <mxCell id="PT8ND_q76XKcG_l77ZsT-2" value="&lt;span&gt;Prendo el pc&lt;/span&gt;" style="whiteSpace=wrap;html=1;fillColor=#dae8fc;strokeColor=#6c8ebf;" parent="1" vertex="1">
          <mxGeometry x="36" y="180" width="120" height="60" as="geometry" />
        </mxCell>
        <mxCell id="PT8ND_q76XKcG_l77ZsT-7" value="" style="edgeStyle=orthogonalEdgeStyle;rounded=0;orthogonalLoop=1;jettySize=auto;html=1;" parent="1" source="PT8ND_q76XKcG_l77ZsT-4" target="PT8ND_q76XKcG_l77ZsT-6" edge="1">
          <mxGeometry relative="1" as="geometry" />
        </mxCell>
        <mxCell id="PT8ND_q76XKcG_l77ZsT-4" value="&lt;span&gt;Inicio sesion&lt;/span&gt;" style="whiteSpace=wrap;html=1;fillColor=#dae8fc;strokeColor=#6c8ebf;" parent="1" vertex="1">
          <mxGeometry x="36" y="440" width="120" height="60" as="geometry" />
        </mxCell>
        <mxCell id="PT8ND_q76XKcG_l77ZsT-9" value="" style="edgeStyle=orthogonalEdgeStyle;rounded=0;orthogonalLoop=1;jettySize=auto;html=1;" parent="1" source="PT8ND_q76XKcG_l77ZsT-6" target="PT8ND_q76XKcG_l77ZsT-8" edge="1">
          <mxGeometry relative="1" as="geometry" />
        </mxCell>
        <mxCell id="PT8ND_q76XKcG_l77ZsT-6" value="&lt;span&gt;Abro el menu de app&lt;/span&gt;" style="whiteSpace=wrap;html=1;fillColor=#dae8fc;strokeColor=#6c8ebf;" parent="1" vertex="1">
          <mxGeometry x="36" y="580" width="120" height="60" as="geometry" />
        </mxCell>
        <mxCell id="PT8ND_q76XKcG_l77ZsT-17" value="" style="edgeStyle=orthogonalEdgeStyle;rounded=0;orthogonalLoop=1;jettySize=auto;html=1;" parent="1" source="PT8ND_q76XKcG_l77ZsT-8" target="PT8ND_q76XKcG_l77ZsT-16" edge="1">
          <mxGeometry relative="1" as="geometry" />
        </mxCell>
        <mxCell id="PT8ND_q76XKcG_l77ZsT-8" value="&lt;span&gt;Abro minecraft&lt;/span&gt;" style="whiteSpace=wrap;html=1;fillColor=#dae8fc;strokeColor=#6c8ebf;" parent="1" vertex="1">
          <mxGeometry x="36" y="720" width="120" height="60" as="geometry" />
        </mxCell>
        <mxCell id="PT8ND_q76XKcG_l77ZsT-12" value="Text" style="text;html=1;strokeColor=none;fillColor=none;align=center;verticalAlign=middle;whiteSpace=wrap;rounded=0;" parent="1" vertex="1">
          <mxGeometry x="56" y="875" width="60" height="30" as="geometry" />
        </mxCell>
        <mxCell id="PT8ND_q76XKcG_l77ZsT-20" value="" style="edgeStyle=orthogonalEdgeStyle;rounded=0;orthogonalLoop=1;jettySize=auto;html=1;" parent="1" source="PT8ND_q76XKcG_l77ZsT-16" target="PT8ND_q76XKcG_l77ZsT-19" edge="1">
          <mxGeometry relative="1" as="geometry" />
        </mxCell>
        <mxCell id="PT8ND_q76XKcG_l77ZsT-16" value="&lt;span&gt;Entro a un jugador&lt;/span&gt;" style="whiteSpace=wrap;html=1;fillColor=#dae8fc;strokeColor=#6c8ebf;" parent="1" vertex="1">
          <mxGeometry x="36" y="860" width="120" height="60" as="geometry" />
        </mxCell>
        <mxCell id="PT8ND_q76XKcG_l77ZsT-23" value="" style="edgeStyle=orthogonalEdgeStyle;rounded=0;orthogonalLoop=1;jettySize=auto;html=1;" parent="1" source="PT8ND_q76XKcG_l77ZsT-19" target="PT8ND_q76XKcG_l77ZsT-22" edge="1">
          <mxGeometry relative="1" as="geometry" />
        </mxCell>
        <mxCell id="PT8ND_q76XKcG_l77ZsT-19" value="&lt;span&gt;Hago click en &lt;br&gt;&quot;new game&quot;&lt;/span&gt;" style="whiteSpace=wrap;html=1;fillColor=#dae8fc;strokeColor=#6c8ebf;" parent="1" vertex="1">
          <mxGeometry x="36" y="1000" width="120" height="60" as="geometry" />
        </mxCell>
        <mxCell id="PT8ND_q76XKcG_l77ZsT-26" value="" style="edgeStyle=orthogonalEdgeStyle;rounded=0;orthogonalLoop=1;jettySize=auto;html=1;" parent="1" source="PT8ND_q76XKcG_l77ZsT-22" target="PT8ND_q76XKcG_l77ZsT-25" edge="1">
          <mxGeometry relative="1" as="geometry" />
        </mxCell>
        <mxCell id="PT8ND_q76XKcG_l77ZsT-22" value="&lt;span&gt;Selecciono mundo survival&lt;/span&gt;" style="whiteSpace=wrap;html=1;fillColor=#dae8fc;strokeColor=#6c8ebf;" parent="1" vertex="1">
          <mxGeometry x="36" y="1140" width="120" height="60" as="geometry" />
        </mxCell>
        <mxCell id="kBB0G43ifVOI-B2i6v7P-5" value="" style="edgeStyle=orthogonalEdgeStyle;rounded=0;orthogonalLoop=1;jettySize=auto;html=1;" parent="1" source="PT8ND_q76XKcG_l77ZsT-25" edge="1">
          <mxGeometry relative="1" as="geometry">
            <mxPoint x="226" y="1310" as="targetPoint" />
          </mxGeometry>
        </mxCell>
        <mxCell id="PT8ND_q76XKcG_l77ZsT-25" value="&lt;span&gt;Selecciono dificultad normal&lt;/span&gt;" style="whiteSpace=wrap;html=1;fillColor=#dae8fc;strokeColor=#6c8ebf;" parent="1" vertex="1">
          <mxGeometry x="36" y="1280" width="120" height="60" as="geometry" />
        </mxCell>
        <mxCell id="kBB0G43ifVOI-B2i6v7P-3" value="&lt;span&gt;Le coloco nombre?&lt;/span&gt;" style="rhombus;whiteSpace=wrap;html=1;fillColor=#f8cecc;strokeColor=#b85450;" parent="1" vertex="1">
          <mxGeometry x="226" y="1265" width="90" height="90" as="geometry" />
        </mxCell>
        <mxCell id="kBB0G43ifVOI-B2i6v7P-6" value="no" style="text;html=1;strokeColor=none;fillColor=none;align=center;verticalAlign=middle;whiteSpace=wrap;rounded=0;rotation=-90;" parent="1" vertex="1">
          <mxGeometry x="236" y="1229" width="60" height="30" as="geometry" />
        </mxCell>
        <mxCell id="kBB0G43ifVOI-B2i6v7P-10" value="" style="endArrow=classic;html=1;rounded=0;" parent="1" edge="1">
          <mxGeometry width="50" height="50" relative="1" as="geometry">
            <mxPoint x="316" y="1310" as="sourcePoint" />
            <mxPoint x="366" y="1260" as="targetPoint" />
            <Array as="points">
              <mxPoint x="316" y="1260" />
            </Array>
          </mxGeometry>
        </mxCell>
        <mxCell id="kBB0G43ifVOI-B2i6v7P-12" value="" style="endArrow=classic;html=1;rounded=0;exitX=0.5;exitY=0;exitDx=0;exitDy=0;" parent="1" source="kBB0G43ifVOI-B2i6v7P-3" edge="1">
          <mxGeometry width="50" height="50" relative="1" as="geometry">
            <mxPoint x="246" y="1270" as="sourcePoint" />
            <mxPoint x="271" y="1210" as="targetPoint" />
          </mxGeometry>
        </mxCell>
        <mxCell id="kBB0G43ifVOI-B2i6v7P-13" value="&lt;font style=&quot;font-size: 11px&quot;&gt;Lo dejo en default&lt;br&gt;&quot;new wold&quot;&lt;/font&gt;" style="shape=parallelogram;perimeter=parallelogramPerimeter;whiteSpace=wrap;html=1;fixedSize=1;fillColor=#ffe6cc;strokeColor=#d79b00;" parent="1" vertex="1">
          <mxGeometry x="211" y="1150" width="120" height="60" as="geometry" />
        </mxCell>
        <mxCell id="kBB0G43ifVOI-B2i6v7P-14" value="si" style="text;html=1;strokeColor=none;fillColor=none;align=center;verticalAlign=middle;whiteSpace=wrap;rounded=0;" parent="1" vertex="1">
          <mxGeometry x="301" y="1235" width="60" height="30" as="geometry" />
        </mxCell>
        <mxCell id="kBB0G43ifVOI-B2i6v7P-17" value="" style="ellipse;whiteSpace=wrap;html=1;aspect=fixed;fontSize=11;" parent="1" vertex="1">
          <mxGeometry x="301" y="1090" width="20" height="20" as="geometry" />
        </mxCell>
        <mxCell id="kBB0G43ifVOI-B2i6v7P-20" value="" style="endArrow=none;html=1;rounded=0;fontSize=11;entryX=1;entryY=0.5;entryDx=0;entryDy=0;exitX=0.575;exitY=0;exitDx=0;exitDy=0;exitPerimeter=0;" parent="1" target="kBB0G43ifVOI-B2i6v7P-17" edge="1">
          <mxGeometry width="50" height="50" relative="1" as="geometry">
            <mxPoint x="425" y="1229" as="sourcePoint" />
            <mxPoint x="336" y="1100" as="targetPoint" />
            <Array as="points">
              <mxPoint x="425" y="1100" />
            </Array>
          </mxGeometry>
        </mxCell>
        <mxCell id="kBB0G43ifVOI-B2i6v7P-21" value="" style="endArrow=none;html=1;rounded=0;fontSize=11;exitX=0.5;exitY=0;exitDx=0;exitDy=0;entryX=0;entryY=0.5;entryDx=0;entryDy=0;" parent="1" source="kBB0G43ifVOI-B2i6v7P-13" target="kBB0G43ifVOI-B2i6v7P-17" edge="1">
          <mxGeometry width="50" height="50" relative="1" as="geometry">
            <mxPoint x="396" y="1050" as="sourcePoint" />
            <mxPoint x="446" y="1000" as="targetPoint" />
            <Array as="points">
              <mxPoint x="271" y="1100" />
            </Array>
          </mxGeometry>
        </mxCell>
        <mxCell id="kBB0G43ifVOI-B2i6v7P-23" value="" style="endArrow=classic;html=1;rounded=0;fontSize=11;exitX=0.5;exitY=0;exitDx=0;exitDy=0;" parent="1" source="kBB0G43ifVOI-B2i6v7P-17" edge="1">
          <mxGeometry width="50" height="50" relative="1" as="geometry">
            <mxPoint x="286" y="1100" as="sourcePoint" />
            <mxPoint x="276" y="1040" as="targetPoint" />
            <Array as="points">
              <mxPoint x="311" y="1060" />
              <mxPoint x="276" y="1060" />
            </Array>
          </mxGeometry>
        </mxCell>
        <mxCell id="kBB0G43ifVOI-B2i6v7P-26" value="" style="edgeStyle=orthogonalEdgeStyle;rounded=0;orthogonalLoop=1;jettySize=auto;html=1;fontSize=11;" parent="1" source="kBB0G43ifVOI-B2i6v7P-24" edge="1">
          <mxGeometry relative="1" as="geometry">
            <mxPoint x="271" y="910" as="targetPoint" />
          </mxGeometry>
        </mxCell>
        <mxCell id="kBB0G43ifVOI-B2i6v7P-24" value="Entro al mundo" style="rounded=0;whiteSpace=wrap;html=1;fontSize=11;fillColor=#dae8fc;strokeColor=#6c8ebf;" parent="1" vertex="1">
          <mxGeometry x="211" y="980" width="120" height="60" as="geometry" />
        </mxCell>
        <mxCell id="kBB0G43ifVOI-B2i6v7P-27" value="Veo unos arboles&lt;br&gt;a mi derecha" style="shape=parallelogram;perimeter=parallelogramPerimeter;whiteSpace=wrap;html=1;fixedSize=1;fontSize=11;fillColor=#ffe6cc;strokeColor=#d79b00;" parent="1" vertex="1">
          <mxGeometry x="211" y="850" width="130" height="60" as="geometry" />
        </mxCell>
        <mxCell id="kBB0G43ifVOI-B2i6v7P-29" value="" style="endArrow=classic;html=1;rounded=0;fontSize=11;exitX=0.5;exitY=0;exitDx=0;exitDy=0;" parent="1" source="kBB0G43ifVOI-B2i6v7P-27" edge="1">
          <mxGeometry width="50" height="50" relative="1" as="geometry">
            <mxPoint x="256" y="840" as="sourcePoint" />
            <mxPoint x="276" y="790" as="targetPoint" />
          </mxGeometry>
        </mxCell>
        <mxCell id="kBB0G43ifVOI-B2i6v7P-30" value="Me dirijo hacia los arboles" style="rounded=0;whiteSpace=wrap;html=1;fontSize=11;fillColor=#dae8fc;strokeColor=#6c8ebf;" parent="1" vertex="1">
          <mxGeometry x="216" y="730" width="120" height="60" as="geometry" />
        </mxCell>
        <mxCell id="kBB0G43ifVOI-B2i6v7P-32" value="" style="endArrow=classic;html=1;rounded=0;fontSize=11;exitX=0.5;exitY=0;exitDx=0;exitDy=0;" parent="1" source="kBB0G43ifVOI-B2i6v7P-30" edge="1">
          <mxGeometry width="50" height="50" relative="1" as="geometry">
            <mxPoint x="246" y="730" as="sourcePoint" />
            <mxPoint x="276" y="680" as="targetPoint" />
          </mxGeometry>
        </mxCell>
        <mxCell id="kBB0G43ifVOI-B2i6v7P-33" value="Pico los arboles con la&lt;br&gt;mano" style="rounded=0;whiteSpace=wrap;html=1;fontSize=11;fillColor=#dae8fc;strokeColor=#6c8ebf;" parent="1" vertex="1">
          <mxGeometry x="216" y="620" width="120" height="60" as="geometry" />
        </mxCell>
        <mxCell id="kBB0G43ifVOI-B2i6v7P-34" value="" style="endArrow=classic;html=1;rounded=0;fontSize=11;exitX=0.5;exitY=0;exitDx=0;exitDy=0;" parent="1" source="kBB0G43ifVOI-B2i6v7P-33" edge="1">
          <mxGeometry width="50" height="50" relative="1" as="geometry">
            <mxPoint x="256" y="620" as="sourcePoint" />
            <mxPoint x="276" y="570" as="targetPoint" />
          </mxGeometry>
        </mxCell>
        <mxCell id="kBB0G43ifVOI-B2i6v7P-36" value="El árbol dropea &lt;br&gt;&amp;nbsp;troncos" style="shape=parallelogram;perimeter=parallelogramPerimeter;whiteSpace=wrap;html=1;fixedSize=1;fontSize=11;fillColor=#ffe6cc;strokeColor=#d79b00;" parent="1" vertex="1">
          <mxGeometry x="211" y="510" width="130" height="60" as="geometry" />
        </mxCell>
        <mxCell id="kBB0G43ifVOI-B2i6v7P-37" value="" style="endArrow=classic;html=1;rounded=0;fontSize=11;exitX=0.5;exitY=0;exitDx=0;exitDy=0;" parent="1" source="kBB0G43ifVOI-B2i6v7P-36" edge="1">
          <mxGeometry width="50" height="50" relative="1" as="geometry">
            <mxPoint x="256" y="510" as="sourcePoint" />
            <mxPoint x="276" y="460" as="targetPoint" />
          </mxGeometry>
        </mxCell>
        <mxCell id="kBB0G43ifVOI-B2i6v7P-38" value="Abro el inventario" style="rounded=0;whiteSpace=wrap;html=1;fontSize=11;fillColor=#dae8fc;strokeColor=#6c8ebf;" parent="1" vertex="1">
          <mxGeometry x="216" y="395" width="120" height="60" as="geometry" />
        </mxCell>
        <mxCell id="kBB0G43ifVOI-B2i6v7P-39" value="" style="endArrow=classic;html=1;rounded=0;fontSize=11;exitX=0.5;exitY=0;exitDx=0;exitDy=0;" parent="1" edge="1">
          <mxGeometry width="50" height="50" relative="1" as="geometry">
            <mxPoint x="275.5" y="395" as="sourcePoint" />
            <mxPoint x="275.5" y="345" as="targetPoint" />
          </mxGeometry>
        </mxCell>
        <mxCell id="kBB0G43ifVOI-B2i6v7P-40" value="Crafteo madera con los&lt;br&gt;troncos" style="rounded=0;whiteSpace=wrap;html=1;fontSize=11;fillColor=#dae8fc;strokeColor=#6c8ebf;" parent="1" vertex="1">
          <mxGeometry x="216" y="280" width="120" height="60" as="geometry" />
        </mxCell>
        <mxCell id="kBB0G43ifVOI-B2i6v7P-43" value="" style="endArrow=classic;html=1;rounded=0;fontSize=11;exitX=0.5;exitY=0;exitDx=0;exitDy=0;" parent="1" edge="1">
          <mxGeometry width="50" height="50" relative="1" as="geometry">
            <mxPoint x="275.5" y="280" as="sourcePoint" />
            <mxPoint x="275.5" y="230" as="targetPoint" />
          </mxGeometry>
        </mxCell>
        <mxCell id="kBB0G43ifVOI-B2i6v7P-44" value="Creo una mesa de crafteo" style="rounded=0;whiteSpace=wrap;html=1;fontSize=11;fillColor=#dae8fc;strokeColor=#6c8ebf;" parent="1" vertex="1">
          <mxGeometry x="216" y="170" width="120" height="60" as="geometry" />
        </mxCell>
        <mxCell id="kBB0G43ifVOI-B2i6v7P-45" value="" style="endArrow=classic;html=1;rounded=0;fontSize=11;exitX=1;exitY=0.5;exitDx=0;exitDy=0;" parent="1" source="kBB0G43ifVOI-B2i6v7P-44" edge="1">
          <mxGeometry width="50" height="50" relative="1" as="geometry">
            <mxPoint x="376" y="230" as="sourcePoint" />
            <mxPoint x="386" y="200" as="targetPoint" />
          </mxGeometry>
        </mxCell>
        <mxCell id="kBB0G43ifVOI-B2i6v7P-46" value="Cierro el inventario" style="rounded=0;whiteSpace=wrap;html=1;fontSize=11;fillColor=#dae8fc;strokeColor=#6c8ebf;" parent="1" vertex="1">
          <mxGeometry x="386" y="170" width="120" height="60" as="geometry" />
        </mxCell>
        <mxCell id="kBB0G43ifVOI-B2i6v7P-47" value="" style="endArrow=classic;html=1;rounded=0;fontSize=11;" parent="1" edge="1">
          <mxGeometry width="50" height="50" relative="1" as="geometry">
            <mxPoint x="446" y="230" as="sourcePoint" />
            <mxPoint x="446" y="280" as="targetPoint" />
            <Array as="points" />
          </mxGeometry>
        </mxCell>
        <mxCell id="kBB0G43ifVOI-B2i6v7P-48" value="Coloco la mesa de crafteo en el suelo" style="rounded=0;whiteSpace=wrap;html=1;fontSize=11;fillColor=#dae8fc;strokeColor=#6c8ebf;" parent="1" vertex="1">
          <mxGeometry x="386" y="280" width="120" height="60" as="geometry" />
        </mxCell>
        <mxCell id="kBB0G43ifVOI-B2i6v7P-49" value="" style="endArrow=classic;html=1;rounded=0;fontSize=11;" parent="1" edge="1">
          <mxGeometry width="50" height="50" relative="1" as="geometry">
            <mxPoint x="445.63" y="340" as="sourcePoint" />
            <mxPoint x="445.63" y="390" as="targetPoint" />
            <Array as="points" />
          </mxGeometry>
        </mxCell>
        <mxCell id="kBB0G43ifVOI-B2i6v7P-50" value="Clickeo sobre la mesa de crafteo" style="rounded=0;whiteSpace=wrap;html=1;fontSize=11;fillColor=#dae8fc;strokeColor=#6c8ebf;" parent="1" vertex="1">
          <mxGeometry x="386" y="390" width="120" height="60" as="geometry" />
        </mxCell>
        <mxCell id="kBB0G43ifVOI-B2i6v7P-51" value="" style="endArrow=classic;html=1;rounded=0;fontSize=11;" parent="1" edge="1">
          <mxGeometry width="50" height="50" relative="1" as="geometry">
            <mxPoint x="445.63" y="450" as="sourcePoint" />
            <mxPoint x="445.63" y="500" as="targetPoint" />
            <Array as="points" />
          </mxGeometry>
        </mxCell>
        <mxCell id="kBB0G43ifVOI-B2i6v7P-53" value="Creo unos palos de madera" style="rounded=0;whiteSpace=wrap;html=1;fontSize=11;fillColor=#dae8fc;strokeColor=#6c8ebf;" parent="1" vertex="1">
          <mxGeometry x="386" y="500" width="120" height="60" as="geometry" />
        </mxCell>
        <mxCell id="kBB0G43ifVOI-B2i6v7P-55" value="" style="endArrow=classic;html=1;rounded=0;fontSize=11;" parent="1" edge="1">
          <mxGeometry width="50" height="50" relative="1" as="geometry">
            <mxPoint x="445.6300000000001" y="560.0000000000001" as="sourcePoint" />
            <mxPoint x="445.6300000000001" y="610.0000000000001" as="targetPoint" />
            <Array as="points" />
          </mxGeometry>
        </mxCell>
        <mxCell id="kBB0G43ifVOI-B2i6v7P-56" value="Creo un pico de madera" style="rounded=0;whiteSpace=wrap;html=1;fontSize=11;fillColor=#dae8fc;strokeColor=#6c8ebf;" parent="1" vertex="1">
          <mxGeometry x="386" y="610" width="120" height="60" as="geometry" />
        </mxCell>
        <mxCell id="kBB0G43ifVOI-B2i6v7P-57" value="" style="endArrow=classic;html=1;rounded=0;fontSize=11;" parent="1" edge="1">
          <mxGeometry width="50" height="50" relative="1" as="geometry">
            <mxPoint x="445.6300000000001" y="670.0000000000001" as="sourcePoint" />
            <mxPoint x="445.6300000000001" y="720.0000000000001" as="targetPoint" />
            <Array as="points" />
          </mxGeometry>
        </mxCell>
        <mxCell id="CCvOJR1eQpiQs_-hQ0Ik-1" value="Salgo de la mesa de crafteo" style="rounded=0;whiteSpace=wrap;html=1;fillColor=#dae8fc;strokeColor=#6c8ebf;" parent="1" vertex="1">
          <mxGeometry x="386" y="720" width="120" height="60" as="geometry" />
        </mxCell>
        <mxCell id="CCvOJR1eQpiQs_-hQ0Ik-2" value="" style="endArrow=classic;html=1;rounded=0;fontSize=11;" parent="1" edge="1">
          <mxGeometry width="50" height="50" relative="1" as="geometry">
            <mxPoint x="445.5000000000001" y="780" as="sourcePoint" />
            <mxPoint x="445.5000000000001" y="830" as="targetPoint" />
            <Array as="points" />
          </mxGeometry>
        </mxCell>
        <mxCell id="CCvOJR1eQpiQs_-hQ0Ik-4" value="Veo una mina&amp;nbsp;&lt;br&gt;natural a mi &lt;br&gt;derecha" style="shape=parallelogram;perimeter=parallelogramPerimeter;whiteSpace=wrap;html=1;fixedSize=1;fillColor=#ffe6cc;strokeColor=#d79b00;" parent="1" vertex="1">
          <mxGeometry x="381" y="830" width="130" height="60" as="geometry" />
        </mxCell>
        <mxCell id="CCvOJR1eQpiQs_-hQ0Ik-5" value="" style="endArrow=classic;html=1;rounded=0;fontSize=11;" parent="1" edge="1">
          <mxGeometry width="50" height="50" relative="1" as="geometry">
            <mxPoint x="445.5000000000001" y="890" as="sourcePoint" />
            <mxPoint x="445.5000000000001" y="940" as="targetPoint" />
            <Array as="points" />
          </mxGeometry>
        </mxCell>
        <mxCell id="CCvOJR1eQpiQs_-hQ0Ik-6" value="Me dirijo a la mina" style="rounded=0;whiteSpace=wrap;html=1;fillColor=#dae8fc;strokeColor=#6c8ebf;" parent="1" vertex="1">
          <mxGeometry x="391" y="940" width="120" height="60" as="geometry" />
        </mxCell>
        <mxCell id="CCvOJR1eQpiQs_-hQ0Ik-7" value="" style="endArrow=classic;html=1;rounded=0;fontSize=11;entryX=0.53;entryY=-0.002;entryDx=0;entryDy=0;exitX=0.5;exitY=1;exitDx=0;exitDy=0;entryPerimeter=0;" parent="1" source="CCvOJR1eQpiQs_-hQ0Ik-6" target="CCvOJR1eQpiQs_-hQ0Ik-9" edge="1">
          <mxGeometry width="50" height="50" relative="1" as="geometry">
            <mxPoint x="486.0000000000001" y="1000" as="sourcePoint" />
            <mxPoint x="546" y="1060" as="targetPoint" />
            <Array as="points">
              <mxPoint x="451" y="1030" />
              <mxPoint x="556" y="1030" />
            </Array>
          </mxGeometry>
        </mxCell>
        <mxCell id="CCvOJR1eQpiQs_-hQ0Ik-9" value="Veo carbon y &lt;br&gt;piedra" style="shape=parallelogram;perimeter=parallelogramPerimeter;whiteSpace=wrap;html=1;fixedSize=1;fillColor=#ffe6cc;strokeColor=#d79b00;" parent="1" vertex="1">
          <mxGeometry x="486" y="1060" width="130" height="60" as="geometry" />
        </mxCell>
        <mxCell id="CCvOJR1eQpiQs_-hQ0Ik-10" value="" style="endArrow=classic;html=1;rounded=0;fontSize=11;" parent="1" edge="1">
          <mxGeometry width="50" height="50" relative="1" as="geometry">
            <mxPoint x="550.5" y="1120" as="sourcePoint" />
            <mxPoint x="550.5" y="1170" as="targetPoint" />
            <Array as="points" />
          </mxGeometry>
        </mxCell>
        <mxCell id="CCvOJR1eQpiQs_-hQ0Ik-11" value="Pico 30 de piedra" style="rounded=0;whiteSpace=wrap;html=1;fillColor=#dae8fc;strokeColor=#6c8ebf;" parent="1" vertex="1">
          <mxGeometry x="491" y="1169" width="120" height="60" as="geometry" />
        </mxCell>
        <mxCell id="CCvOJR1eQpiQs_-hQ0Ik-13" value="" style="endArrow=classic;html=1;rounded=0;fontSize=11;" parent="1" edge="1">
          <mxGeometry width="50" height="50" relative="1" as="geometry">
            <mxPoint x="550.71" y="1229" as="sourcePoint" />
            <mxPoint x="550.71" y="1279" as="targetPoint" />
            <Array as="points" />
          </mxGeometry>
        </mxCell>
        <mxCell id="CCvOJR1eQpiQs_-hQ0Ik-14" value="Pico 15 menas de carbon" style="rounded=0;whiteSpace=wrap;html=1;fillColor=#dae8fc;strokeColor=#6c8ebf;" parent="1" vertex="1">
          <mxGeometry x="496" y="1280" width="120" height="60" as="geometry" />
        </mxCell>
        <mxCell id="CCvOJR1eQpiQs_-hQ0Ik-16" value="" style="endArrow=classic;html=1;rounded=0;fontSize=11;entryX=0;entryY=0.5;entryDx=0;entryDy=0;" parent="1" target="CCvOJR1eQpiQs_-hQ0Ik-19" edge="1">
          <mxGeometry width="50" height="50" relative="1" as="geometry">
            <mxPoint x="616" y="1309.71" as="sourcePoint" />
            <mxPoint x="666" y="1310" as="targetPoint" />
            <Array as="points" />
          </mxGeometry>
        </mxCell>
        <mxCell id="CCvOJR1eQpiQs_-hQ0Ik-19" value="Consigo 22 de&lt;br&gt;&amp;nbsp;carbon" style="shape=parallelogram;perimeter=parallelogramPerimeter;whiteSpace=wrap;html=1;fixedSize=1;fillColor=#ffe6cc;strokeColor=#d79b00;" parent="1" vertex="1">
          <mxGeometry x="666" y="1280" width="120" height="60" as="geometry" />
        </mxCell>
        <mxCell id="CCvOJR1eQpiQs_-hQ0Ik-20" value="" style="endArrow=classic;html=1;rounded=0;fontSize=11;exitX=0.5;exitY=0;exitDx=0;exitDy=0;" parent="1" edge="1">
          <mxGeometry width="50" height="50" relative="1" as="geometry">
            <mxPoint x="736" y="1280" as="sourcePoint" />
            <mxPoint x="736" y="1230" as="targetPoint" />
          </mxGeometry>
        </mxCell>
        <mxCell id="CCvOJR1eQpiQs_-hQ0Ik-25" value="" style="edgeStyle=orthogonalEdgeStyle;rounded=0;orthogonalLoop=1;jettySize=auto;html=1;" parent="1" target="CCvOJR1eQpiQs_-hQ0Ik-23" edge="1">
          <mxGeometry relative="1" as="geometry">
            <mxPoint x="736" y="1059" as="sourcePoint" />
          </mxGeometry>
        </mxCell>
        <mxCell id="CCvOJR1eQpiQs_-hQ0Ik-21" value="Salgo de la mina" style="rounded=0;whiteSpace=wrap;html=1;fillColor=#dae8fc;strokeColor=#6c8ebf;" parent="1" vertex="1">
          <mxGeometry x="676" y="1060" width="120" height="60" as="geometry" />
        </mxCell>
        <mxCell id="CCvOJR1eQpiQs_-hQ0Ik-22" value="" style="endArrow=classic;html=1;rounded=0;fontSize=11;exitX=0.5;exitY=0;exitDx=0;exitDy=0;" parent="1" edge="1">
          <mxGeometry width="50" height="50" relative="1" as="geometry">
            <mxPoint x="735.71" y="1060" as="sourcePoint" />
            <mxPoint x="735.71" y="1010" as="targetPoint" />
          </mxGeometry>
        </mxCell>
        <mxCell id="CCvOJR1eQpiQs_-hQ0Ik-23" value="Me dirijo a la mesa&lt;br&gt;&amp;nbsp;de crafteo" style="rounded=0;whiteSpace=wrap;html=1;fillColor=#dae8fc;strokeColor=#6c8ebf;" parent="1" vertex="1">
          <mxGeometry x="676" y="950" width="120" height="60" as="geometry" />
        </mxCell>
        <mxCell id="CCvOJR1eQpiQs_-hQ0Ik-24" value="Clickeo sobre la mesa de crafteo" style="rounded=0;whiteSpace=wrap;html=1;fillColor=#dae8fc;strokeColor=#6c8ebf;" parent="1" vertex="1">
          <mxGeometry x="676" y="840" width="120" height="60" as="geometry" />
        </mxCell>
        <mxCell id="CCvOJR1eQpiQs_-hQ0Ik-26" value="" style="endArrow=classic;html=1;rounded=0;fontSize=11;exitX=0.5;exitY=0;exitDx=0;exitDy=0;" parent="1" edge="1">
          <mxGeometry width="50" height="50" relative="1" as="geometry">
            <mxPoint x="735.44" y="950" as="sourcePoint" />
            <mxPoint x="735.44" y="900" as="targetPoint" />
          </mxGeometry>
        </mxCell>
        <mxCell id="CCvOJR1eQpiQs_-hQ0Ik-27" value="" style="endArrow=classic;html=1;rounded=0;fontSize=11;exitX=0.5;exitY=0;exitDx=0;exitDy=0;" parent="1" edge="1">
          <mxGeometry width="50" height="50" relative="1" as="geometry">
            <mxPoint x="735.73" y="840" as="sourcePoint" />
            <mxPoint x="735.73" y="790" as="targetPoint" />
          </mxGeometry>
        </mxCell>
        <mxCell id="CCvOJR1eQpiQs_-hQ0Ik-28" value="Crafteo una espada de piedra" style="rounded=0;whiteSpace=wrap;html=1;fillColor=#dae8fc;strokeColor=#6c8ebf;" parent="1" vertex="1">
          <mxGeometry x="676" y="730" width="120" height="60" as="geometry" />
        </mxCell>
        <mxCell id="CCvOJR1eQpiQs_-hQ0Ik-29" value="" style="endArrow=classic;html=1;rounded=0;fontSize=11;exitX=0.5;exitY=0;exitDx=0;exitDy=0;" parent="1" edge="1">
          <mxGeometry width="50" height="50" relative="1" as="geometry">
            <mxPoint x="735.73" y="1169.9999999999998" as="sourcePoint" />
            <mxPoint x="735.73" y="1119.9999999999998" as="targetPoint" />
          </mxGeometry>
        </mxCell>
        <mxCell id="CCvOJR1eQpiQs_-hQ0Ik-31" value="Se me rompe&lt;br&gt;el pico" style="shape=parallelogram;perimeter=parallelogramPerimeter;whiteSpace=wrap;html=1;fixedSize=1;fillColor=#ffe6cc;strokeColor=#d79b00;" parent="1" vertex="1">
          <mxGeometry x="676" y="1169" width="120" height="60" as="geometry" />
        </mxCell>
        <mxCell id="CCvOJR1eQpiQs_-hQ0Ik-32" value="" style="endArrow=classic;html=1;rounded=0;fontSize=11;exitX=0.5;exitY=0;exitDx=0;exitDy=0;" parent="1" edge="1">
          <mxGeometry width="50" height="50" relative="1" as="geometry">
            <mxPoint x="735.73" y="730" as="sourcePoint" />
            <mxPoint x="735.73" y="680" as="targetPoint" />
          </mxGeometry>
        </mxCell>
        <mxCell id="CCvOJR1eQpiQs_-hQ0Ik-33" value="Crafteo un pico de piedra" style="rounded=0;whiteSpace=wrap;html=1;fillColor=#dae8fc;strokeColor=#6c8ebf;" parent="1" vertex="1">
          <mxGeometry x="676" y="620" width="120" height="60" as="geometry" />
        </mxCell>
        <mxCell id="CCvOJR1eQpiQs_-hQ0Ik-34" value="" style="endArrow=classic;html=1;rounded=0;fontSize=11;exitX=0.5;exitY=0;exitDx=0;exitDy=0;" parent="1" edge="1">
          <mxGeometry width="50" height="50" relative="1" as="geometry">
            <mxPoint x="735.73" y="620" as="sourcePoint" />
            <mxPoint x="735.73" y="570" as="targetPoint" />
          </mxGeometry>
        </mxCell>
        <mxCell id="CCvOJR1eQpiQs_-hQ0Ik-35" value="Crafteo una hacha de piedra" style="rounded=0;whiteSpace=wrap;html=1;fillColor=#dae8fc;strokeColor=#6c8ebf;" parent="1" vertex="1">
          <mxGeometry x="676" y="510" width="120" height="60" as="geometry" />
        </mxCell>
        <mxCell id="CCvOJR1eQpiQs_-hQ0Ik-36" value="" style="endArrow=classic;html=1;rounded=0;fontSize=11;exitX=0.5;exitY=0;exitDx=0;exitDy=0;" parent="1" edge="1">
          <mxGeometry width="50" height="50" relative="1" as="geometry">
            <mxPoint x="735.71" y="510" as="sourcePoint" />
            <mxPoint x="735.71" y="460" as="targetPoint" />
          </mxGeometry>
        </mxCell>
        <mxCell id="CCvOJR1eQpiQs_-hQ0Ik-37" value="Salgo de la mesa de crafteo" style="rounded=0;whiteSpace=wrap;html=1;fillColor=#dae8fc;strokeColor=#6c8ebf;" parent="1" vertex="1">
          <mxGeometry x="676" y="400" width="120" height="60" as="geometry" />
        </mxCell>
        <mxCell id="CCvOJR1eQpiQs_-hQ0Ik-38" value="" style="endArrow=classic;html=1;rounded=0;fontSize=11;exitX=0.5;exitY=0;exitDx=0;exitDy=0;" parent="1" edge="1">
          <mxGeometry width="50" height="50" relative="1" as="geometry">
            <mxPoint x="735.71" y="400" as="sourcePoint" />
            <mxPoint x="735.71" y="350" as="targetPoint" />
          </mxGeometry>
        </mxCell>
        <mxCell id="CCvOJR1eQpiQs_-hQ0Ik-39" value="Pico la mesa de crafteo con el hacha" style="rounded=0;whiteSpace=wrap;html=1;fillColor=#dae8fc;strokeColor=#6c8ebf;" parent="1" vertex="1">
          <mxGeometry x="676" y="290" width="120" height="60" as="geometry" />
        </mxCell>
        <mxCell id="CCvOJR1eQpiQs_-hQ0Ik-41" value="" style="endArrow=classic;html=1;rounded=0;fontSize=11;exitX=0.5;exitY=0;exitDx=0;exitDy=0;" parent="1" edge="1">
          <mxGeometry width="50" height="50" relative="1" as="geometry">
            <mxPoint x="735.7100000000003" y="290" as="sourcePoint" />
            <mxPoint x="735.7100000000003" y="240" as="targetPoint" />
          </mxGeometry>
        </mxCell>
        <mxCell id="CCvOJR1eQpiQs_-hQ0Ik-42" value="Recogo la mesa&amp;nbsp;&lt;br&gt;de crafteo" style="shape=parallelogram;perimeter=parallelogramPerimeter;whiteSpace=wrap;html=1;fixedSize=1;fillColor=#dae8fc;strokeColor=#6c8ebf;" parent="1" vertex="1">
          <mxGeometry x="676" y="180" width="130" height="60" as="geometry" />
        </mxCell>
        <mxCell id="CCvOJR1eQpiQs_-hQ0Ik-43" value="" style="endArrow=classic;html=1;rounded=0;fontSize=11;entryX=0;entryY=0.5;entryDx=0;entryDy=0;" parent="1" edge="1">
          <mxGeometry width="50" height="50" relative="1" as="geometry">
            <mxPoint x="796" y="209.5800000000002" as="sourcePoint" />
            <mxPoint x="856" y="209.86999999999995" as="targetPoint" />
            <Array as="points" />
          </mxGeometry>
        </mxCell>
        <mxCell id="CCvOJR1eQpiQs_-hQ0Ik-44" value="Voy hacia los arboles" style="rounded=0;whiteSpace=wrap;html=1;fillColor=#dae8fc;strokeColor=#6c8ebf;" parent="1" vertex="1">
          <mxGeometry x="856" y="180" width="120" height="60" as="geometry" />
        </mxCell>
        <mxCell id="CCvOJR1eQpiQs_-hQ0Ik-45" value="" style="endArrow=classic;html=1;rounded=0;fontSize=11;" parent="1" edge="1">
          <mxGeometry width="50" height="50" relative="1" as="geometry">
            <mxPoint x="915.5799999999999" y="240" as="sourcePoint" />
            <mxPoint x="915.5799999999999" y="290" as="targetPoint" />
            <Array as="points" />
          </mxGeometry>
        </mxCell>
        <mxCell id="CCvOJR1eQpiQs_-hQ0Ik-46" value="Los pico con el hacha" style="rounded=0;whiteSpace=wrap;html=1;fillColor=#dae8fc;strokeColor=#6c8ebf;" parent="1" vertex="1">
          <mxGeometry x="856" y="290" width="120" height="60" as="geometry" />
        </mxCell>
        <mxCell id="CCvOJR1eQpiQs_-hQ0Ik-48" value="" style="endArrow=classic;html=1;rounded=0;fontSize=11;" parent="1" edge="1">
          <mxGeometry width="50" height="50" relative="1" as="geometry">
            <mxPoint x="915.5799999999999" y="350" as="sourcePoint" />
            <mxPoint x="915.5799999999999" y="400" as="targetPoint" />
            <Array as="points" />
          </mxGeometry>
        </mxCell>
        <mxCell id="CCvOJR1eQpiQs_-hQ0Ik-50" value="Me da un total&amp;nbsp;&lt;br&gt;de 10&amp;nbsp;&lt;br&gt;troncos" style="shape=parallelogram;perimeter=parallelogramPerimeter;whiteSpace=wrap;html=1;fixedSize=1;fillColor=#ffe6cc;strokeColor=#d79b00;" parent="1" vertex="1">
          <mxGeometry x="856" y="400" width="120" height="60" as="geometry" />
        </mxCell>
        <mxCell id="CCvOJR1eQpiQs_-hQ0Ik-52" value="" style="endArrow=classic;html=1;rounded=0;fontSize=11;" parent="1" edge="1">
          <mxGeometry width="50" height="50" relative="1" as="geometry">
            <mxPoint x="915.5799999999999" y="460" as="sourcePoint" />
            <mxPoint x="915.5799999999999" y="510" as="targetPoint" />
            <Array as="points" />
          </mxGeometry>
        </mxCell>
        <mxCell id="CCvOJR1eQpiQs_-hQ0Ik-66" value="" style="edgeStyle=orthogonalEdgeStyle;rounded=0;orthogonalLoop=1;jettySize=auto;html=1;" parent="1" source="CCvOJR1eQpiQs_-hQ0Ik-53" edge="1">
          <mxGeometry relative="1" as="geometry">
            <mxPoint x="916" y="620" as="targetPoint" />
          </mxGeometry>
        </mxCell>
        <mxCell id="CCvOJR1eQpiQs_-hQ0Ik-53" value="Veo un grupo&amp;nbsp;&lt;br&gt;de vacas&amp;nbsp;&lt;br&gt;alfrente" style="shape=parallelogram;perimeter=parallelogramPerimeter;whiteSpace=wrap;html=1;fixedSize=1;fillColor=#ffe6cc;strokeColor=#d79b00;" parent="1" vertex="1">
          <mxGeometry x="856" y="510" width="120" height="60" as="geometry" />
        </mxCell>
        <mxCell id="CCvOJR1eQpiQs_-hQ0Ik-54" value="" style="endArrow=classic;html=1;rounded=0;fontSize=11;" parent="1" edge="1">
          <mxGeometry width="50" height="50" relative="1" as="geometry">
            <mxPoint x="915.5799999999999" y="570" as="sourcePoint" />
            <mxPoint x="915.5799999999999" y="620" as="targetPoint" />
            <Array as="points" />
          </mxGeometry>
        </mxCell>
        <mxCell id="CCvOJR1eQpiQs_-hQ0Ik-55" value="Me dirijo hacia las vacas" style="rounded=0;whiteSpace=wrap;html=1;fillColor=#dae8fc;strokeColor=#6c8ebf;" parent="1" vertex="1">
          <mxGeometry x="856" y="730" width="120" height="60" as="geometry" />
        </mxCell>
        <mxCell id="CCvOJR1eQpiQs_-hQ0Ik-56" value="" style="endArrow=classic;html=1;rounded=0;fontSize=11;" parent="1" edge="1">
          <mxGeometry width="50" height="50" relative="1" as="geometry">
            <mxPoint x="915.5799999999999" y="790" as="sourcePoint" />
            <mxPoint x="915.5799999999999" y="840" as="targetPoint" />
            <Array as="points" />
          </mxGeometry>
        </mxCell>
        <mxCell id="CCvOJR1eQpiQs_-hQ0Ik-62" value="" style="edgeStyle=orthogonalEdgeStyle;rounded=0;orthogonalLoop=1;jettySize=auto;html=1;" parent="1" source="CCvOJR1eQpiQs_-hQ0Ik-57" target="CCvOJR1eQpiQs_-hQ0Ik-59" edge="1">
          <mxGeometry relative="1" as="geometry" />
        </mxCell>
        <mxCell id="CCvOJR1eQpiQs_-hQ0Ik-57" value="Saco la espada" style="rounded=0;whiteSpace=wrap;html=1;fillColor=#dae8fc;strokeColor=#6c8ebf;" parent="1" vertex="1">
          <mxGeometry x="856" y="840" width="120" height="60" as="geometry" />
        </mxCell>
        <mxCell id="CCvOJR1eQpiQs_-hQ0Ik-58" value="" style="endArrow=classic;html=1;rounded=0;fontSize=11;" parent="1" edge="1">
          <mxGeometry width="50" height="50" relative="1" as="geometry">
            <mxPoint x="915.5799999999999" y="900" as="sourcePoint" />
            <mxPoint x="915.5799999999999" y="950" as="targetPoint" />
            <Array as="points" />
          </mxGeometry>
        </mxCell>
        <mxCell id="CCvOJR1eQpiQs_-hQ0Ik-59" value="Las mato con ella" style="rounded=0;whiteSpace=wrap;html=1;fillColor=#dae8fc;strokeColor=#6c8ebf;" parent="1" vertex="1">
          <mxGeometry x="856" y="950" width="120" height="60" as="geometry" />
        </mxCell>
        <mxCell id="CCvOJR1eQpiQs_-hQ0Ik-64" value="" style="endArrow=classic;html=1;rounded=0;fontSize=11;" parent="1" edge="1">
          <mxGeometry width="50" height="50" relative="1" as="geometry">
            <mxPoint x="915.5999999999999" y="1010" as="sourcePoint" />
            <mxPoint x="915.5999999999999" y="1060" as="targetPoint" />
            <Array as="points" />
          </mxGeometry>
        </mxCell>
        <mxCell id="CCvOJR1eQpiQs_-hQ0Ik-67" value="" style="endArrow=classic;html=1;rounded=0;fontSize=11;" parent="1" edge="1">
          <mxGeometry width="50" height="50" relative="1" as="geometry">
            <mxPoint x="915.5999999999999" y="680" as="sourcePoint" />
            <mxPoint x="915.5999999999999" y="730" as="targetPoint" />
            <Array as="points" />
          </mxGeometry>
        </mxCell>
        <mxCell id="CCvOJR1eQpiQs_-hQ0Ik-68" value="Son 5 vacas" style="shape=parallelogram;perimeter=parallelogramPerimeter;whiteSpace=wrap;html=1;fixedSize=1;fillColor=#ffe6cc;strokeColor=#d79b00;" parent="1" vertex="1">
          <mxGeometry x="856" y="620" width="120" height="60" as="geometry" />
        </mxCell>
        <mxCell id="CCvOJR1eQpiQs_-hQ0Ik-69" value="Dropean un total&amp;nbsp;&lt;br&gt;de 8 de carne&amp;nbsp;&lt;br&gt;y 3 de cuero" style="shape=parallelogram;perimeter=parallelogramPerimeter;whiteSpace=wrap;html=1;fixedSize=1;fillColor=#ffe6cc;strokeColor=#d79b00;" parent="1" vertex="1">
          <mxGeometry x="851" y="1060" width="130" height="60" as="geometry" />
        </mxCell>
        <mxCell id="CCvOJR1eQpiQs_-hQ0Ik-70" value="" style="endArrow=classic;html=1;rounded=0;fontSize=11;" parent="1" edge="1">
          <mxGeometry width="50" height="50" relative="1" as="geometry">
            <mxPoint x="915.6999999999999" y="1119" as="sourcePoint" />
            <mxPoint x="915.6999999999999" y="1169" as="targetPoint" />
            <Array as="points" />
          </mxGeometry>
        </mxCell>
        <mxCell id="CCvOJR1eQpiQs_-hQ0Ik-71" value="Coloco la mesa de crafteo en el suelo" style="rounded=0;whiteSpace=wrap;html=1;fillColor=#dae8fc;strokeColor=#6c8ebf;" parent="1" vertex="1">
          <mxGeometry x="856" y="1169" width="120" height="60" as="geometry" />
        </mxCell>
        <mxCell id="CCvOJR1eQpiQs_-hQ0Ik-72" value="" style="endArrow=classic;html=1;rounded=0;fontSize=11;" parent="1" edge="1">
          <mxGeometry width="50" height="50" relative="1" as="geometry">
            <mxPoint x="915.6999999999998" y="1230" as="sourcePoint" />
            <mxPoint x="915.6999999999998" y="1280" as="targetPoint" />
            <Array as="points" />
          </mxGeometry>
        </mxCell>
        <mxCell id="CCvOJR1eQpiQs_-hQ0Ik-73" value="Clickeo sobre la mesa de crafteo" style="rounded=0;whiteSpace=wrap;html=1;fillColor=#dae8fc;strokeColor=#6c8ebf;" parent="1" vertex="1">
          <mxGeometry x="856" y="1280" width="120" height="60" as="geometry" />
        </mxCell>
        <mxCell id="CCvOJR1eQpiQs_-hQ0Ik-74" value="" style="endArrow=classic;html=1;rounded=0;fontSize=11;entryX=0;entryY=0.5;entryDx=0;entryDy=0;" parent="1" edge="1">
          <mxGeometry width="50" height="50" relative="1" as="geometry">
            <mxPoint x="976" y="1309.7" as="sourcePoint" />
            <mxPoint x="1036" y="1309.99" as="targetPoint" />
            <Array as="points" />
          </mxGeometry>
        </mxCell>
        <mxCell id="CCvOJR1eQpiQs_-hQ0Ik-75" value="Crafteo un horno" style="rounded=0;whiteSpace=wrap;html=1;fillColor=#dae8fc;strokeColor=#6c8ebf;" parent="1" vertex="1">
          <mxGeometry x="1036" y="1280" width="120" height="60" as="geometry" />
        </mxCell>
        <mxCell id="CCvOJR1eQpiQs_-hQ0Ik-76" value="" style="endArrow=classic;html=1;rounded=0;fontSize=11;exitX=0.5;exitY=0;exitDx=0;exitDy=0;" parent="1" edge="1">
          <mxGeometry width="50" height="50" relative="1" as="geometry">
            <mxPoint x="1095.7000000000003" y="1280" as="sourcePoint" />
            <mxPoint x="1095.7000000000003" y="1230" as="targetPoint" />
          </mxGeometry>
        </mxCell>
        <mxCell id="CCvOJR1eQpiQs_-hQ0Ik-77" value="Salgo de la mesa de crafteo" style="rounded=0;whiteSpace=wrap;html=1;fillColor=#dae8fc;strokeColor=#6c8ebf;" parent="1" vertex="1">
          <mxGeometry x="1036" y="1169" width="120" height="60" as="geometry" />
        </mxCell>
        <mxCell id="CCvOJR1eQpiQs_-hQ0Ik-79" value="" style="endArrow=classic;html=1;rounded=0;fontSize=11;exitX=0.5;exitY=0;exitDx=0;exitDy=0;" parent="1" edge="1">
          <mxGeometry width="50" height="50" relative="1" as="geometry">
            <mxPoint x="1095.7000000000003" y="1169" as="sourcePoint" />
            <mxPoint x="1095.7000000000003" y="1119" as="targetPoint" />
          </mxGeometry>
        </mxCell>
        <mxCell id="CCvOJR1eQpiQs_-hQ0Ik-80" value="Coloco el horno junto a la mesa de crafteo" style="rounded=0;whiteSpace=wrap;html=1;fillColor=#dae8fc;strokeColor=#6c8ebf;" parent="1" vertex="1">
          <mxGeometry x="1036" y="1060" width="120" height="60" as="geometry" />
        </mxCell>
        <mxCell id="CCvOJR1eQpiQs_-hQ0Ik-81" value="" style="endArrow=classic;html=1;rounded=0;fontSize=11;exitX=0.5;exitY=0;exitDx=0;exitDy=0;" parent="1" edge="1">
          <mxGeometry width="50" height="50" relative="1" as="geometry">
            <mxPoint x="1095.7000000000003" y="1060" as="sourcePoint" />
            <mxPoint x="1095.7000000000003" y="1010" as="targetPoint" />
          </mxGeometry>
        </mxCell>
        <mxCell id="CCvOJR1eQpiQs_-hQ0Ik-82" value="Clickeo sobre el horno&amp;nbsp;" style="rounded=0;whiteSpace=wrap;html=1;fillColor=#dae8fc;strokeColor=#6c8ebf;" parent="1" vertex="1">
          <mxGeometry x="1036" y="950" width="120" height="60" as="geometry" />
        </mxCell>
        <mxCell id="CCvOJR1eQpiQs_-hQ0Ik-83" value="" style="endArrow=classic;html=1;rounded=0;fontSize=11;exitX=0.5;exitY=0;exitDx=0;exitDy=0;" parent="1" edge="1">
          <mxGeometry width="50" height="50" relative="1" as="geometry">
            <mxPoint x="1095.7000000000003" y="950" as="sourcePoint" />
            <mxPoint x="1095.7000000000003" y="900" as="targetPoint" />
          </mxGeometry>
        </mxCell>
        <mxCell id="CCvOJR1eQpiQs_-hQ0Ik-84" value="Introdusco el carbon" style="rounded=0;whiteSpace=wrap;html=1;fillColor=#dae8fc;strokeColor=#6c8ebf;" parent="1" vertex="1">
          <mxGeometry x="1036" y="840" width="120" height="60" as="geometry" />
        </mxCell>
        <mxCell id="CCvOJR1eQpiQs_-hQ0Ik-85" value="" style="endArrow=classic;html=1;rounded=0;fontSize=11;exitX=0.5;exitY=0;exitDx=0;exitDy=0;" parent="1" edge="1">
          <mxGeometry width="50" height="50" relative="1" as="geometry">
            <mxPoint x="1095.7000000000003" y="840" as="sourcePoint" />
            <mxPoint x="1095.7000000000003" y="790" as="targetPoint" />
          </mxGeometry>
        </mxCell>
        <mxCell id="CCvOJR1eQpiQs_-hQ0Ik-86" value="Introdusco la carne" style="rounded=0;whiteSpace=wrap;html=1;fillColor=#dae8fc;strokeColor=#6c8ebf;" parent="1" vertex="1">
          <mxGeometry x="1036" y="730" width="120" height="60" as="geometry" />
        </mxCell>
        <mxCell id="CCvOJR1eQpiQs_-hQ0Ik-87" value="" style="endArrow=classic;html=1;rounded=0;fontSize=11;exitX=0.5;exitY=0;exitDx=0;exitDy=0;" parent="1" edge="1">
          <mxGeometry width="50" height="50" relative="1" as="geometry">
            <mxPoint x="1095.5000000000002" y="730" as="sourcePoint" />
            <mxPoint x="1095.5000000000002" y="680" as="targetPoint" />
          </mxGeometry>
        </mxCell>
        <mxCell id="CCvOJR1eQpiQs_-hQ0Ik-89" value="Salgo del horno" style="rounded=0;whiteSpace=wrap;html=1;fillColor=#dae8fc;strokeColor=#6c8ebf;" parent="1" vertex="1">
          <mxGeometry x="1036" y="500" width="120" height="60" as="geometry" />
        </mxCell>
        <mxCell id="CCvOJR1eQpiQs_-hQ0Ik-91" value="" style="endArrow=classic;html=1;rounded=0;fontSize=11;exitX=0.5;exitY=0;exitDx=0;exitDy=0;" parent="1" edge="1">
          <mxGeometry width="50" height="50" relative="1" as="geometry">
            <mxPoint x="1095.7100000000003" y="610" as="sourcePoint" />
            <mxPoint x="1095.7100000000003" y="560" as="targetPoint" />
          </mxGeometry>
        </mxCell>
        <mxCell id="CCvOJR1eQpiQs_-hQ0Ik-92" value="" style="endArrow=classic;html=1;rounded=0;fontSize=11;exitX=0.5;exitY=0;exitDx=0;exitDy=0;" parent="1" edge="1">
          <mxGeometry width="50" height="50" relative="1" as="geometry">
            <mxPoint x="1095.7100000000003" y="500" as="sourcePoint" />
            <mxPoint x="1095.7100000000003" y="450" as="targetPoint" />
          </mxGeometry>
        </mxCell>
        <mxCell id="CCvOJR1eQpiQs_-hQ0Ik-93" value="Pico el horno&amp;nbsp;" style="rounded=0;whiteSpace=wrap;html=1;fillColor=#dae8fc;strokeColor=#6c8ebf;" parent="1" vertex="1">
          <mxGeometry x="1036" y="390" width="120" height="60" as="geometry" />
        </mxCell>
        <mxCell id="CCvOJR1eQpiQs_-hQ0Ik-95" value="" style="endArrow=classic;html=1;rounded=0;fontSize=11;exitX=0.5;exitY=0;exitDx=0;exitDy=0;" parent="1" edge="1">
          <mxGeometry width="50" height="50" relative="1" as="geometry">
            <mxPoint x="1095.7100000000003" y="390" as="sourcePoint" />
            <mxPoint x="1095.7100000000003" y="340" as="targetPoint" />
          </mxGeometry>
        </mxCell>
        <mxCell id="CCvOJR1eQpiQs_-hQ0Ik-96" value="pico la mesa de crafteo" style="rounded=0;whiteSpace=wrap;html=1;fillColor=#dae8fc;strokeColor=#6c8ebf;" parent="1" vertex="1">
          <mxGeometry x="1036" y="280" width="120" height="60" as="geometry" />
        </mxCell>
        <mxCell id="CCvOJR1eQpiQs_-hQ0Ik-97" value="" style="endArrow=classic;html=1;rounded=0;fontSize=11;exitX=0.5;exitY=0;exitDx=0;exitDy=0;" parent="1" edge="1">
          <mxGeometry width="50" height="50" relative="1" as="geometry">
            <mxPoint x="1095.7100000000003" y="280" as="sourcePoint" />
            <mxPoint x="1095.7100000000003" y="230" as="targetPoint" />
          </mxGeometry>
        </mxCell>
        <mxCell id="CCvOJR1eQpiQs_-hQ0Ik-100" value="" style="endArrow=classic;html=1;rounded=0;fontSize=11;entryX=0;entryY=0.5;entryDx=0;entryDy=0;exitX=1;exitY=0.5;exitDx=0;exitDy=0;" parent="1" source="CCvOJR1eQpiQs_-hQ0Ik-111" target="CCvOJR1eQpiQs_-hQ0Ik-105" edge="1">
          <mxGeometry width="50" height="50" relative="1" as="geometry">
            <mxPoint x="1156" y="209.6000000000002" as="sourcePoint" />
            <mxPoint x="1216" y="209.89" as="targetPoint" />
            <Array as="points" />
          </mxGeometry>
        </mxCell>
        <mxCell id="CCvOJR1eQpiQs_-hQ0Ik-102" value="" style="endArrow=classic;html=1;rounded=0;fontSize=11;" parent="1" edge="1">
          <mxGeometry width="50" height="50" relative="1" as="geometry">
            <mxPoint x="1275.6" y="230" as="sourcePoint" />
            <mxPoint x="1275.6" y="280" as="targetPoint" />
            <Array as="points" />
          </mxGeometry>
        </mxCell>
        <mxCell id="CCvOJR1eQpiQs_-hQ0Ik-103" value="Me dirijo a la orilla de la grieta" style="rounded=0;whiteSpace=wrap;html=1;fillColor=#dae8fc;strokeColor=#6c8ebf;" parent="1" vertex="1">
          <mxGeometry x="1216" y="280" width="120" height="60" as="geometry" />
        </mxCell>
        <mxCell id="CCvOJR1eQpiQs_-hQ0Ik-104" value="" style="endArrow=classic;html=1;rounded=0;fontSize=11;" parent="1" edge="1">
          <mxGeometry width="50" height="50" relative="1" as="geometry">
            <mxPoint x="1275.6" y="340" as="sourcePoint" />
            <mxPoint x="1275.6" y="390" as="targetPoint" />
            <Array as="points" />
          </mxGeometry>
        </mxCell>
        <mxCell id="CCvOJR1eQpiQs_-hQ0Ik-105" value="Veo una grieta natural" style="shape=parallelogram;perimeter=parallelogramPerimeter;whiteSpace=wrap;html=1;fixedSize=1;fillColor=#ffe6cc;strokeColor=#d79b00;" parent="1" vertex="1">
          <mxGeometry x="1216" y="170" width="140" height="60" as="geometry" />
        </mxCell>
        <mxCell id="CCvOJR1eQpiQs_-hQ0Ik-108" value="" style="endArrow=classic;html=1;rounded=0;fontSize=11;" parent="1" edge="1">
          <mxGeometry width="50" height="50" relative="1" as="geometry">
            <mxPoint x="1275.5" y="450" as="sourcePoint" />
            <mxPoint x="1275.5" y="500" as="targetPoint" />
            <Array as="points" />
          </mxGeometry>
        </mxCell>
        <mxCell id="CCvOJR1eQpiQs_-hQ0Ik-110" value="Saco la carne" style="shape=parallelogram;perimeter=parallelogramPerimeter;whiteSpace=wrap;html=1;fixedSize=1;fillColor=#ffe6cc;strokeColor=#d79b00;" parent="1" vertex="1">
          <mxGeometry x="1036" y="610" width="130" height="65" as="geometry" />
        </mxCell>
        <mxCell id="CCvOJR1eQpiQs_-hQ0Ik-111" value="Recojo los items" style="shape=parallelogram;perimeter=parallelogramPerimeter;whiteSpace=wrap;html=1;fixedSize=1;fillColor=#ffe6cc;strokeColor=#d79b00;" parent="1" vertex="1">
          <mxGeometry x="1036" y="170" width="120" height="60" as="geometry" />
        </mxCell>
        <mxCell id="CCvOJR1eQpiQs_-hQ0Ik-113" value="Veo cascadas de &lt;br&gt;lava y agua,veo hierro y redstone&amp;nbsp;" style="shape=parallelogram;perimeter=parallelogramPerimeter;whiteSpace=wrap;html=1;fixedSize=1;fillColor=#ffe6cc;strokeColor=#d79b00;" parent="1" vertex="1">
          <mxGeometry x="1206" y="500" width="144" height="70" as="geometry" />
        </mxCell>
        <mxCell id="CCvOJR1eQpiQs_-hQ0Ik-114" value="" style="endArrow=classic;html=1;rounded=0;fontSize=11;" parent="1" edge="1">
          <mxGeometry width="50" height="50" relative="1" as="geometry">
            <mxPoint x="1275.5" y="570" as="sourcePoint" />
            <mxPoint x="1275.5" y="620" as="targetPoint" />
            <Array as="points" />
          </mxGeometry>
        </mxCell>
        <mxCell id="CCvOJR1eQpiQs_-hQ0Ik-115" value="Salto a una cascada de agua" style="rounded=0;whiteSpace=wrap;html=1;fillColor=#dae8fc;strokeColor=#6c8ebf;" parent="1" vertex="1">
          <mxGeometry x="1216" y="620" width="120" height="60" as="geometry" />
        </mxCell>
        <mxCell id="CCvOJR1eQpiQs_-hQ0Ik-117" value="" style="endArrow=classic;html=1;rounded=0;fontSize=11;" parent="1" edge="1">
          <mxGeometry width="50" height="50" relative="1" as="geometry">
            <mxPoint x="1275.5" y="680" as="sourcePoint" />
            <mxPoint x="1275.5" y="730" as="targetPoint" />
            <Array as="points" />
          </mxGeometry>
        </mxCell>
        <mxCell id="CCvOJR1eQpiQs_-hQ0Ik-119" value="&lt;span&gt;A mi derecha&lt;br&gt;&amp;nbsp;hay 5 menas de hierro&lt;/span&gt;" style="shape=parallelogram;perimeter=parallelogramPerimeter;whiteSpace=wrap;html=1;fixedSize=1;fillColor=#ffe6cc;strokeColor=#d79b00;" parent="1" vertex="1">
          <mxGeometry x="1216" y="730" width="120" height="60" as="geometry" />
        </mxCell>
        <mxCell id="CCvOJR1eQpiQs_-hQ0Ik-120" value="" style="endArrow=classic;html=1;rounded=0;fontSize=11;" parent="1" edge="1">
          <mxGeometry width="50" height="50" relative="1" as="geometry">
            <mxPoint x="1275.5" y="790" as="sourcePoint" />
            <mxPoint x="1275.5" y="840" as="targetPoint" />
            <Array as="points" />
          </mxGeometry>
        </mxCell>
        <mxCell id="CCvOJR1eQpiQs_-hQ0Ik-121" value="Pico las menas de hierro" style="rounded=0;whiteSpace=wrap;html=1;fillColor=#dae8fc;strokeColor=#6c8ebf;" parent="1" vertex="1">
          <mxGeometry x="1216" y="840" width="120" height="60" as="geometry" />
        </mxCell>
        <mxCell id="CCvOJR1eQpiQs_-hQ0Ik-122" value="" style="endArrow=classic;html=1;rounded=0;fontSize=11;" parent="1" edge="1">
          <mxGeometry width="50" height="50" relative="1" as="geometry">
            <mxPoint x="1275.5" y="900" as="sourcePoint" />
            <mxPoint x="1275.5" y="950" as="targetPoint" />
            <Array as="points" />
          </mxGeometry>
        </mxCell>
        <mxCell id="CCvOJR1eQpiQs_-hQ0Ik-123" value="Coloco el horno en el suelo" style="rounded=0;whiteSpace=wrap;html=1;fillColor=#dae8fc;strokeColor=#6c8ebf;" parent="1" vertex="1">
          <mxGeometry x="1216" y="950" width="120" height="60" as="geometry" />
        </mxCell>
        <mxCell id="CCvOJR1eQpiQs_-hQ0Ik-124" value="" style="endArrow=classic;html=1;rounded=0;fontSize=11;" parent="1" edge="1">
          <mxGeometry width="50" height="50" relative="1" as="geometry">
            <mxPoint x="1275.5" y="1010" as="sourcePoint" />
            <mxPoint x="1275.5" y="1060" as="targetPoint" />
            <Array as="points" />
          </mxGeometry>
        </mxCell>
        <mxCell id="CCvOJR1eQpiQs_-hQ0Ik-125" value="Clickeo sobre el horno" style="rounded=0;whiteSpace=wrap;html=1;fillColor=#dae8fc;strokeColor=#6c8ebf;" parent="1" vertex="1">
          <mxGeometry x="1216" y="1060" width="120" height="60" as="geometry" />
        </mxCell>
        <mxCell id="CCvOJR1eQpiQs_-hQ0Ik-126" value="&quot;Le coloco uno&quot;" style="shape=document;whiteSpace=wrap;html=1;boundedLbl=1;fillColor=#e1d5e7;strokeColor=#9673a6;" parent="1" vertex="1">
          <mxGeometry x="366" y="1229" width="115" height="80" as="geometry" />
        </mxCell>
        <mxCell id="CCvOJR1eQpiQs_-hQ0Ik-127" value="" style="endArrow=classic;html=1;rounded=0;fontSize=11;" parent="1" edge="1">
          <mxGeometry width="50" height="50" relative="1" as="geometry">
            <mxPoint x="1275.5" y="1120" as="sourcePoint" />
            <mxPoint x="1275.5" y="1170" as="targetPoint" />
            <Array as="points" />
          </mxGeometry>
        </mxCell>
        <mxCell id="CCvOJR1eQpiQs_-hQ0Ik-128" value="Le coloco carbon" style="rounded=0;whiteSpace=wrap;html=1;fillColor=#dae8fc;strokeColor=#6c8ebf;" parent="1" vertex="1">
          <mxGeometry x="1216" y="1170" width="120" height="60" as="geometry" />
        </mxCell>
        <mxCell id="CCvOJR1eQpiQs_-hQ0Ik-129" value="Le pongo las menas de hierro" style="rounded=0;whiteSpace=wrap;html=1;fillColor=#dae8fc;strokeColor=#6c8ebf;" parent="1" vertex="1">
          <mxGeometry x="1216" y="1279" width="120" height="60" as="geometry" />
        </mxCell>
        <mxCell id="CCvOJR1eQpiQs_-hQ0Ik-130" value="" style="endArrow=classic;html=1;rounded=0;fontSize=11;" parent="1" edge="1">
          <mxGeometry width="50" height="50" relative="1" as="geometry">
            <mxPoint x="1275.5" y="1230" as="sourcePoint" />
            <mxPoint x="1275.5" y="1280" as="targetPoint" />
            <Array as="points" />
          </mxGeometry>
        </mxCell>
        <mxCell id="CCvOJR1eQpiQs_-hQ0Ik-131" value="" style="endArrow=classic;html=1;rounded=0;fontSize=11;entryX=0;entryY=0.5;entryDx=0;entryDy=0;" parent="1" edge="1">
          <mxGeometry width="50" height="50" relative="1" as="geometry">
            <mxPoint x="1336" y="1315" as="sourcePoint" />
            <mxPoint x="1396" y="1315.29" as="targetPoint" />
            <Array as="points" />
          </mxGeometry>
        </mxCell>
        <mxCell id="CCvOJR1eQpiQs_-hQ0Ik-133" value="Retiro el hierro&lt;br&gt;cocinado" style="shape=parallelogram;perimeter=parallelogramPerimeter;whiteSpace=wrap;html=1;fixedSize=1;fillColor=#ffe6cc;strokeColor=#d79b00;" parent="1" vertex="1">
          <mxGeometry x="1386" y="1279" width="120" height="60" as="geometry" />
        </mxCell>
        <mxCell id="CCvOJR1eQpiQs_-hQ0Ik-134" value="" style="endArrow=classic;html=1;rounded=0;fontSize=11;exitX=0.5;exitY=0;exitDx=0;exitDy=0;" parent="1" edge="1">
          <mxGeometry width="50" height="50" relative="1" as="geometry">
            <mxPoint x="1445.5000000000002" y="1279" as="sourcePoint" />
            <mxPoint x="1445.5000000000002" y="1229" as="targetPoint" />
          </mxGeometry>
        </mxCell>
        <mxCell id="CCvOJR1eQpiQs_-hQ0Ik-135" value="Salgo del horno" style="rounded=0;whiteSpace=wrap;html=1;fillColor=#dae8fc;strokeColor=#6c8ebf;" parent="1" vertex="1">
          <mxGeometry x="1386" y="1170" width="120" height="60" as="geometry" />
        </mxCell>
        <mxCell id="CCvOJR1eQpiQs_-hQ0Ik-136" value="" style="endArrow=classic;html=1;rounded=0;fontSize=11;exitX=0.5;exitY=0;exitDx=0;exitDy=0;" parent="1" edge="1">
          <mxGeometry width="50" height="50" relative="1" as="geometry">
            <mxPoint x="1445.5000000000002" y="1170" as="sourcePoint" />
            <mxPoint x="1445.5000000000002" y="1120" as="targetPoint" />
          </mxGeometry>
        </mxCell>
        <mxCell id="CCvOJR1eQpiQs_-hQ0Ik-137" value="coloco la mesa de crafteo en el suelo" style="rounded=0;whiteSpace=wrap;html=1;fillColor=#dae8fc;strokeColor=#6c8ebf;" parent="1" vertex="1">
          <mxGeometry x="1386" y="1060" width="120" height="60" as="geometry" />
        </mxCell>
        <mxCell id="CCvOJR1eQpiQs_-hQ0Ik-138" value="" style="endArrow=classic;html=1;rounded=0;fontSize=11;exitX=0.5;exitY=0;exitDx=0;exitDy=0;" parent="1" edge="1">
          <mxGeometry width="50" height="50" relative="1" as="geometry">
            <mxPoint x="1445.5" y="1060" as="sourcePoint" />
            <mxPoint x="1445.5" y="1010" as="targetPoint" />
          </mxGeometry>
        </mxCell>
        <mxCell id="CCvOJR1eQpiQs_-hQ0Ik-139" value="Clickeo sobre la mesa de crafteo" style="rounded=0;whiteSpace=wrap;html=1;fillColor=#dae8fc;strokeColor=#6c8ebf;" parent="1" vertex="1">
          <mxGeometry x="1386" y="950" width="120" height="60" as="geometry" />
        </mxCell>
        <mxCell id="CCvOJR1eQpiQs_-hQ0Ik-140" value="Crafteo un pico de hierro" style="rounded=0;whiteSpace=wrap;html=1;fillColor=#dae8fc;strokeColor=#6c8ebf;" parent="1" vertex="1">
          <mxGeometry x="1386" y="840" width="120" height="60" as="geometry" />
        </mxCell>
        <mxCell id="CCvOJR1eQpiQs_-hQ0Ik-141" value="" style="endArrow=classic;html=1;rounded=0;fontSize=11;exitX=0.5;exitY=0;exitDx=0;exitDy=0;" parent="1" edge="1">
          <mxGeometry width="50" height="50" relative="1" as="geometry">
            <mxPoint x="1445.5" y="950" as="sourcePoint" />
            <mxPoint x="1445.5" y="900" as="targetPoint" />
          </mxGeometry>
        </mxCell>
        <mxCell id="CCvOJR1eQpiQs_-hQ0Ik-143" value="" style="endArrow=classic;html=1;rounded=0;fontSize=11;exitX=0.5;exitY=0;exitDx=0;exitDy=0;" parent="1" edge="1">
          <mxGeometry width="50" height="50" relative="1" as="geometry">
            <mxPoint x="1445.6" y="840" as="sourcePoint" />
            <mxPoint x="1445.6" y="790" as="targetPoint" />
          </mxGeometry>
        </mxCell>
        <mxCell id="CCvOJR1eQpiQs_-hQ0Ik-144" value="Salgo de la mesa de crafteo&amp;nbsp;" style="rounded=0;whiteSpace=wrap;html=1;fillColor=#dae8fc;strokeColor=#6c8ebf;" parent="1" vertex="1">
          <mxGeometry x="1386" y="730" width="120" height="60" as="geometry" />
        </mxCell>
        <mxCell id="CCvOJR1eQpiQs_-hQ0Ik-145" value="" style="endArrow=classic;html=1;rounded=0;fontSize=11;exitX=0.5;exitY=0;exitDx=0;exitDy=0;" parent="1" edge="1">
          <mxGeometry width="50" height="50" relative="1" as="geometry">
            <mxPoint x="1445.6" y="730" as="sourcePoint" />
            <mxPoint x="1445.6" y="680" as="targetPoint" />
          </mxGeometry>
        </mxCell>
        <mxCell id="CCvOJR1eQpiQs_-hQ0Ik-147" value="Hacia mi derecha &lt;br&gt;es mas profunda &lt;br&gt;la mina" style="shape=parallelogram;perimeter=parallelogramPerimeter;whiteSpace=wrap;html=1;fixedSize=1;fillColor=#ffe6cc;strokeColor=#d79b00;" parent="1" vertex="1">
          <mxGeometry x="1370" y="620" width="136" height="60" as="geometry" />
        </mxCell>
        <mxCell id="CCvOJR1eQpiQs_-hQ0Ik-149" value="" style="endArrow=classic;html=1;rounded=0;fontSize=11;exitX=0.5;exitY=0;exitDx=0;exitDy=0;" parent="1" edge="1">
          <mxGeometry width="50" height="50" relative="1" as="geometry">
            <mxPoint x="1445.71" y="620" as="sourcePoint" />
            <mxPoint x="1445.71" y="570" as="targetPoint" />
          </mxGeometry>
        </mxCell>
        <mxCell id="CCvOJR1eQpiQs_-hQ0Ik-150" value="Voy hacia la derecha&amp;nbsp;" style="rounded=0;whiteSpace=wrap;html=1;fillColor=#dae8fc;strokeColor=#6c8ebf;" parent="1" vertex="1">
          <mxGeometry x="1386" y="510" width="120" height="60" as="geometry" />
        </mxCell>
        <mxCell id="CCvOJR1eQpiQs_-hQ0Ik-151" value="" style="endArrow=classic;html=1;rounded=0;fontSize=11;exitX=0.5;exitY=0;exitDx=0;exitDy=0;" parent="1" edge="1">
          <mxGeometry width="50" height="50" relative="1" as="geometry">
            <mxPoint x="1445.7100000000003" y="510" as="sourcePoint" />
            <mxPoint x="1445.7100000000003" y="460" as="targetPoint" />
          </mxGeometry>
        </mxCell>
        <mxCell id="CCvOJR1eQpiQs_-hQ0Ik-153" value="Veo una mena de diamante a mi izquierda" style="shape=parallelogram;perimeter=parallelogramPerimeter;whiteSpace=wrap;html=1;fixedSize=1;fillColor=#ffe6cc;strokeColor=#d79b00;" parent="1" vertex="1">
          <mxGeometry x="1380" y="400" width="126" height="60" as="geometry" />
        </mxCell>
        <mxCell id="CCvOJR1eQpiQs_-hQ0Ik-154" value="" style="endArrow=classic;html=1;rounded=0;fontSize=11;exitX=0.5;exitY=0;exitDx=0;exitDy=0;" parent="1" edge="1">
          <mxGeometry width="50" height="50" relative="1" as="geometry">
            <mxPoint x="1445.7100000000003" y="400" as="sourcePoint" />
            <mxPoint x="1445.7100000000003" y="350" as="targetPoint" />
          </mxGeometry>
        </mxCell>
        <mxCell id="CCvOJR1eQpiQs_-hQ0Ik-155" value="La pico con el pico de hierro" style="rounded=0;whiteSpace=wrap;html=1;fillColor=#dae8fc;strokeColor=#6c8ebf;" parent="1" vertex="1">
          <mxGeometry x="1386" y="290" width="120" height="60" as="geometry" />
        </mxCell>
        <mxCell id="CCvOJR1eQpiQs_-hQ0Ik-156" value="" style="endArrow=classic;html=1;rounded=0;fontSize=11;exitX=0.5;exitY=0;exitDx=0;exitDy=0;" parent="1" edge="1">
          <mxGeometry width="50" height="50" relative="1" as="geometry">
            <mxPoint x="1445.7100000000003" y="290" as="sourcePoint" />
            <mxPoint x="1445.7100000000003" y="240" as="targetPoint" />
          </mxGeometry>
        </mxCell>
        <mxCell id="CCvOJR1eQpiQs_-hQ0Ik-157" value="Dropea un &lt;br&gt;diamante" style="shape=parallelogram;perimeter=parallelogramPerimeter;whiteSpace=wrap;html=1;fixedSize=1;fillColor=#ffe6cc;strokeColor=#d79b00;" parent="1" vertex="1">
          <mxGeometry x="1386" y="180" width="120" height="60" as="geometry" />
        </mxCell>
        <mxCell id="CCvOJR1eQpiQs_-hQ0Ik-158" value="" style="endArrow=classic;html=1;rounded=0;fontSize=11;entryX=0;entryY=0.5;entryDx=0;entryDy=0;" parent="1" edge="1">
          <mxGeometry width="50" height="50" relative="1" as="geometry">
            <mxPoint x="1496" y="209.7100000000002" as="sourcePoint" />
            <mxPoint x="1556" y="209.99999999999994" as="targetPoint" />
            <Array as="points" />
          </mxGeometry>
        </mxCell>
        <mxCell id="CCvOJR1eQpiQs_-hQ0Ik-159" value="Recojo el diamante" style="rounded=0;whiteSpace=wrap;html=1;fillColor=#dae8fc;strokeColor=#6c8ebf;" parent="1" vertex="1">
          <mxGeometry x="1556" y="180" width="120" height="60" as="geometry" />
        </mxCell>
        <mxCell id="CCvOJR1eQpiQs_-hQ0Ik-160" value="" style="endArrow=classic;html=1;rounded=0;fontSize=11;" parent="1" edge="1">
          <mxGeometry width="50" height="50" relative="1" as="geometry">
            <mxPoint x="1615.71" y="240" as="sourcePoint" />
            <mxPoint x="1615.71" y="290" as="targetPoint" />
            <Array as="points" />
          </mxGeometry>
        </mxCell>
        <mxCell id="CCvOJR1eQpiQs_-hQ0Ik-161" value="Obtengo el &lt;br&gt;progreso &lt;br&gt;diamantes" style="shape=parallelogram;perimeter=parallelogramPerimeter;whiteSpace=wrap;html=1;fixedSize=1;fillColor=#ffe6cc;strokeColor=#d79b00;" parent="1" vertex="1">
          <mxGeometry x="1556" y="290" width="120" height="60" as="geometry" />
        </mxCell>
        <mxCell id="CCvOJR1eQpiQs_-hQ0Ik-162" value="" style="endArrow=classic;html=1;rounded=0;fontSize=11;" parent="1" edge="1">
          <mxGeometry width="50" height="50" relative="1" as="geometry">
            <mxPoint x="1615.71" y="465" as="sourcePoint" />
            <mxPoint x="1615.71" y="515" as="targetPoint" />
            <Array as="points" />
          </mxGeometry>
        </mxCell>
        <mxCell id="CCvOJR1eQpiQs_-hQ0Ik-163" value="FIn" style="ellipse;whiteSpace=wrap;html=1;fillColor=#f5f5f5;fontColor=#333333;strokeColor=#666666;" parent="1" vertex="1">
          <mxGeometry x="1556" y="515" width="120" height="80" as="geometry" />
        </mxCell>
        <mxCell id="xb5qKyPw8lpsHWbiLxI4-1" value="&lt;span&gt;Veo hacia abajo&lt;/span&gt;" style="shape=parallelogram;perimeter=parallelogramPerimeter;whiteSpace=wrap;html=1;fixedSize=1;fillColor=#ffe6cc;strokeColor=#d79b00;" parent="1" vertex="1">
          <mxGeometry x="1216" y="390" width="120" height="60" as="geometry" />
        </mxCell>
        <mxCell id="xb5qKyPw8lpsHWbiLxI4-2" value="&quot;Se ha desbloqueado el progreso: diamantes&quot;" style="shape=document;whiteSpace=wrap;html=1;boundedLbl=1;fillColor=#e1d5e7;strokeColor=#9673a6;" parent="1" vertex="1">
          <mxGeometry x="1556" y="400" width="120" height="80" as="geometry" />
        </mxCell>
        <mxCell id="xb5qKyPw8lpsHWbiLxI4-3" value="" style="endArrow=classic;html=1;rounded=0;fontSize=11;" parent="1" edge="1">
          <mxGeometry width="50" height="50" relative="1" as="geometry">
            <mxPoint x="1615.63" y="350" as="sourcePoint" />
            <mxPoint x="1615.63" y="400" as="targetPoint" />
            <Array as="points" />
          </mxGeometry>
        </mxCell>
        <mxCell id="xb5qKyPw8lpsHWbiLxI4-5" value="&quot;Se requiere actualizar sistema&quot;" style="shape=document;whiteSpace=wrap;html=1;boundedLbl=1;fillColor=#e1d5e7;strokeColor=#9673a6;" parent="1" vertex="1">
          <mxGeometry x="36" y="290" width="120" height="80" as="geometry" />
        </mxCell>
        <mxCell id="xb5qKyPw8lpsHWbiLxI4-6" value="" style="endArrow=classic;html=1;rounded=0;fontSize=11;" parent="1" edge="1">
          <mxGeometry width="50" height="50" relative="1" as="geometry">
            <mxPoint x="100" y="240" as="sourcePoint" />
            <mxPoint x="100" y="290" as="targetPoint" />
            <Array as="points" />
          </mxGeometry>
        </mxCell>
      </root>
    </mxGraphModel>
  </diagram>
</mxfile>
